<?xml version="1.0" encoding="UTF-8" standalone="no"?>
<!-- Created with Inkscape (http://www.inkscape.org/) -->

<svg
   width="210mm"
   height="297mm"
   viewBox="0 0 210 297"
   version="1.1"
   id="svg1"
   xml:space="preserve"
   inkscape:version="1.4 (86a8ad7, 2024-10-11)"
   sodipodi:docname="gbellllllll.svg"
   xmlns:inkscape="http://www.inkscape.org/namespaces/inkscape"
   xmlns:sodipodi="http://sodipodi.sourceforge.net/DTD/sodipodi-0.dtd"
   xmlns:xlink="http://www.w3.org/1999/xlink"
   xmlns="http://www.w3.org/2000/svg"
   xmlns:svg="http://www.w3.org/2000/svg"><sodipodi:namedview
     id="namedview1"
     pagecolor="#ffffff"
     bordercolor="#000000"
     borderopacity="0.25"
     inkscape:showpageshadow="2"
     inkscape:pageopacity="0.0"
     inkscape:pagecheckerboard="0"
     inkscape:deskcolor="#d1d1d1"
     inkscape:document-units="mm"
     inkscape:zoom="1.0167041"
     inkscape:cx="388.51029"
     inkscape:cy="665.38534"
     inkscape:window-width="1920"
     inkscape:window-height="1009"
     inkscape:window-x="-8"
     inkscape:window-y="-8"
     inkscape:window-maximized="1"
     inkscape:current-layer="layer2"
     showguides="true"><sodipodi:guide
       position="-172.49575,142.09059"
       orientation="1,0"
       id="guide16"
       inkscape:locked="false" /></sodipodi:namedview><defs
     id="defs1"><linearGradient
       id="linearGradient1372"
       inkscape:collect="always"><stop
         style="stop-color:#ffff00;stop-opacity:1;"
         offset="0"
         id="stop1372" /><stop
         style="stop-color:#ffff00;stop-opacity:0;"
         offset="1"
         id="stop1373" /></linearGradient><linearGradient
       id="linearGradient1370"
       inkscape:collect="always"><stop
         style="stop-color:#ffff00;stop-opacity:1;"
         offset="0"
         id="stop1370" /><stop
         style="stop-color:#ffff00;stop-opacity:0;"
         offset="1"
         id="stop1371" /></linearGradient><linearGradient
       id="linearGradient1368"
       inkscape:collect="always"><stop
         style="stop-color:#ffff00;stop-opacity:1;"
         offset="0"
         id="stop1368" /><stop
         style="stop-color:#ffff00;stop-opacity:0;"
         offset="1"
         id="stop1369" /></linearGradient><linearGradient
       id="linearGradient6"
       inkscape:collect="always"><stop
         style="stop-color:#ff7f43;stop-opacity:1;"
         offset="0"
         id="stop6" /><stop
         style="stop-color:#24221c;stop-opacity:1"
         offset="1"
         id="stop7" /></linearGradient><rect
       x="364.43638"
       y="371.39127"
       width="13.909786"
       height="1.3909705"
       id="rect3" /><linearGradient
       inkscape:collect="always"
       xlink:href="#linearGradient6"
       id="linearGradient7"
       x1="42.854977"
       y1="192.43192"
       x2="160.51669"
       y2="238.75397"
       gradientUnits="userSpaceOnUse"
       gradientTransform="matrix(1.0064644,0,0,0.83302522,-2.8727583,32.304931)" /><linearGradient
       inkscape:collect="always"
       xlink:href="#linearGradient1368"
       id="linearGradient1369"
       x1="89.476425"
       y1="67.42881"
       x2="96.663658"
       y2="93.793251"
       gradientUnits="userSpaceOnUse" /><linearGradient
       inkscape:collect="always"
       xlink:href="#linearGradient1370"
       id="linearGradient1371"
       x1="91.027702"
       y1="68.814857"
       x2="92.028854"
       y2="90.240311"
       gradientUnits="userSpaceOnUse" /><linearGradient
       inkscape:collect="always"
       xlink:href="#linearGradient1372"
       id="linearGradient1373"
       x1="80.183311"
       y1="55.213982"
       x2="76.136246"
       y2="95.24955"
       gradientUnits="userSpaceOnUse" /></defs><g
     inkscape:label="Camada 1"
     inkscape:groupmode="layer"
     id="layer1"><path
       style="fill:#000000;fill-opacity:0"
       d="m 96.176042,226.53234 c -6.742388,-3.79079 -12.492006,-8.10178 -19.05,-14.28347 -13.570195,-12.79151 -23.835169,-29.14126 -30.100152,-47.94262 -3.094384,-9.28632 -5.093586,-18.62228 -6.289022,-29.36875 -0.529679,-4.76159 -1.253753,-19.72756 -0.968258,-20.01305 0.08797,-0.088 2.457191,-0.72485 5.264938,-1.4153 13.838146,-3.40288 21.351966,-6.27407 36.359071,-13.893528 5.362679,-2.722759 10.089961,-4.939445 11.641667,-5.458934 2.47767,-0.82949 2.810712,-0.874659 6.449048,-0.874659 3.638336,0 3.971376,0.04517 6.449046,0.874659 1.55171,0.519489 6.27899,2.736175 11.64167,5.458934 15.0071,7.619458 22.52092,10.490648 36.35907,13.893528 2.80775,0.69045 5.17776,1.32812 5.26669,1.41706 0.2935,0.29349 -0.44354,15.0484 -0.98693,19.75762 -3.42554,29.68703 -15.09183,55.03759 -34.37449,74.69492 -6.21007,6.33074 -11.63456,10.92238 -17.60818,14.90471 -2.25167,1.50108 -6.542547,4.06245 -6.772876,4.04296 -0.05846,-0.005 -1.535042,-0.81228 -3.281292,-1.79408 z m 6.896338,-7.07715 c 10.41632,-7.00011 20.83164,-17.31724 28.30929,-28.0424 11.53058,-16.53827 18.55635,-35.49419 21.12796,-57.00445 0.52972,-4.43086 1.00936,-11.66616 0.90271,-13.6172 l -0.0863,-1.57865 -1.05833,-0.2277 c -4.24446,-0.9132 -12.45599,-3.39132 -17.72708,-5.34978 -5.94902,-2.21034 -8.40702,-3.32474 -19.31459,-8.75682 -7.59598,-3.78288 -10.87098,-5.277345 -12.41159,-5.663724 -4.76113,-1.194072 -6.104305,-0.795234 -19.073825,5.663724 -10.90757,5.43208 -13.365565,6.54648 -19.314583,8.75682 -5.251296,1.95111 -13.324524,4.38939 -17.727083,5.35395 l -1.058334,0.23187 0.04221,4.08803 c 0.125473,12.15206 2.628936,26.67854 6.708281,38.92516 6.786068,20.3725 17.658644,36.63215 33.598468,50.24564 3.967945,3.38885 12.333976,9.14292 13.404172,9.21925 0.169014,0.0121 1.824394,-0.99762 3.678624,-2.24372 z"
       id="path2" /><rect
       style="fill:#000000;stroke-width:0.264583;fill-opacity:0"
       id="rect4"
       width="7.7286248"
       height="125.86617"
       x="95.319695"
       y="96.791824"
       ry="2.2081785" /><path
       style="fill:#ff0000;fill-opacity:1"
       d="m 390.16948,601.64187 c 0,-213.95597 0.12251,-225.25302 2.43421,-224.46339 1.33882,0.45731 21.19367,9.88681 44.12189,20.95446 22.92822,11.06764 47.02692,22.34653 53.55267,25.06421 21.14291,8.80503 51.60311,18.60271 83.34308,26.80773 l 6.10208,1.57744 -0.9813,18.32557 c -7.84824,146.56277 -70.03422,269.79925 -176.17765,349.13842 -5.80589,4.33974 -10.9699,7.89043 -11.47557,7.89043 -0.50568,0 -0.91941,-101.38269 -0.91941,-225.29487 z"
       id="path5"
       transform="scale(0.26458333)" /><path
       style="fill:#ff0000;fill-opacity:1;stroke-width:0.98357"
       d="m 391.45778,823.53652 c -0.83246,-3.39069 -0.11044,-444.09281 0.72894,-444.93205 0.77767,-0.77755 4.21831,0.78774 54.84601,24.9516 18.12228,8.6495 37.76517,17.78155 43.65085,20.29343 13.04563,5.56758 43.10874,15.69014 63.06653,21.23514 8.11446,2.25449 17.1407,4.77147 20.05833,5.5933 l 5.30477,1.49422 -0.67205,13.90509 c -6.86528,142.04745 -65.1664,263.65815 -164.63397,343.41113 -5.5614,4.45913 -12.74056,9.95158 -15.95368,12.20546 -5.746,4.03058 -5.85114,4.06088 -6.39573,1.84268 z"
       id="path6"
       transform="scale(0.26458333)" /><path
       style="fill:#ff0000;fill-opacity:1;stroke-width:0.255535"
       d="m 103.60974,218.817 c -0.21828,-0.21047 -0.21584,-109.58338 0.002,-112.07389 0.0926,-1.05585 0.26012,-1.91975 0.37235,-1.91975 0.11222,0 4.3987,1.93296 9.5255,4.29546 13.25606,6.10857 15.62159,7.14163 19.81274,8.65259 5.06506,1.826 8.5499,2.86788 18.49785,5.53036 l 1.66868,-0.94712 -0.44499,4.88089 c -3.18471,34.93132 -16.04756,64.92509 -40.75241,85.36377 -4.20731,3.48078 -8.40386,6.48609 -8.68223,6.21769 z"
       id="path7"
       sodipodi:nodetypes="ccsssscsscc" /><path
       style="fill:#000000;fill-opacity:1;stroke-width:0.98357"
       d="M 348.78835,820.35396 C 294.46953,782.32657 245.90279,723.25598 217.33269,660.4675 190.5908,601.69688 175.46205,536.54658 173.43644,471.43312 l -0.63313,-20.35206 2.85735,-0.6266 c 8.60079,-1.88611 33.6748,-8.9634 47.26274,-13.34019 25.95594,-8.36065 46.23734,-16.93439 85.91769,-36.32078 37.50955,-18.32582 50.01367,-24.07053 50.76259,-23.32162 0.21302,0.21303 0.27571,101.63512 0.1393,225.38243 l -0.24801,224.99513 z"
       id="path8"
       transform="scale(0.26458333)" /><path
       style="font-style:italic;font-weight:bold;font-size:22.3136px;line-height:0;font-family:'Liberation Serif';-inkscape-font-specification:'Liberation Serif, Bold Italic';white-space:pre;inline-size:141.692;fill:url(#linearGradient7);fill-opacity:1;stroke-width:0.273634"
       d="M 143.6875 179.17773 C 140.93672 179.72109 138.87653 182.35555 138.70151 185.10621 C 138.61765 186.61245 138.67361 188.12752 138.81876 189.62859 C 139.37288 194.77845 141.23287 199.66221 143.13543 204.4407 C 145.70312 210.79954 148.69668 216.9934 152.18381 222.89964 C 153.24587 224.31733 154.76648 225.58831 156.59718 225.73307 C 158.90944 225.70899 160.8986 223.32724 160.43164 221.04492 C 160.21599 220.50727 159.27213 220.77829 159.3418 221.3418 C 158.9962 222.70143 157.47078 223.65697 156.10095 223.25684 C 154.87425 222.98714 153.96758 221.94233 153.55101 220.79897 C 151.42354 216.8003 150.22986 212.40685 148.65936 208.17979 C 146.24841 201.00901 144.14841 193.64701 143.63575 186.06492 C 143.59431 184.50939 143.88736 182.7871 145.06073 181.66899 C 146.46902 180.62727 148.65005 181.19753 149.53525 182.65989 C 152.30701 185.86553 153.88825 189.85143 155.65126 193.65061 C 156.06003 194.55226 156.46528 195.45559 156.89062 196.34961 C 157.48905 196.71378 158.23418 195.80243 157.79492 195.27344 C 156.38409 191.33561 155.04331 187.26452 152.47656 183.89844 C 150.65559 181.55187 148.06886 179.62368 145.06641 179.21094 C 144.61045 179.1651 144.14215 179.08946 143.6875 179.17773 z M 55.259766 179.27539 C 53.50812 179.67004 51.895324 180.48596 50.283203 181.25 C 49.425796 184.89509 48.878775 188.60349 48.088463 192.26276 C 45.851196 203.51995 43.186433 214.68597 40.488281 225.83984 C 40.400769 226.70048 41.397469 227.28193 42.163597 227.06961 C 43.046846 227.06199 43.929335 227.02043 44.8125 227.00781 C 45.345718 226.32917 45.073708 225.42472 45.100349 224.63643 C 44.974668 222.81851 44.912986 220.84328 45.920513 219.23895 C 46.719212 217.87136 48.160013 217.11462 49.386802 216.1953 C 50.762464 215.13219 51.924047 213.7468 52.522299 212.09898 C 55.752369 205.25015 58.450356 198.10479 59.97304 190.67187 C 60.419013 187.7196 60.546245 184.61283 59.560544 181.75261 C 58.731047 180.22638 57.014503 179.17171 55.259766 179.27539 z M 55.875 182.79883 C 57.277155 184.85335 57.429497 187.48722 57.053955 189.87769 C 56.346945 194.04582 54.749122 197.98357 53.297719 201.93218 C 51.65519 206.10735 49.715562 210.15761 47.705078 214.16602 C 47.461627 214.37112 47.088221 213.93521 47.333984 213.72852 C 50.256601 203.49193 53.06511 193.22277 55.759766 182.92383 C 55.787963 182.87935 55.8028 182.78558 55.875 182.79883 z M 64.806641 187.59766 C 64.102549 194.69827 61.777324 201.49536 59.404332 208.1814 C 57.575012 213.52725 55.758196 218.8795 54.15625 224.29883 C 53.739256 225.04016 52.909953 225.36746 52.279297 225.88672 C 52.545951 226.73054 53.578161 226.95193 54.351094 226.79209 C 55.552243 226.77269 56.753889 226.73477 57.955078 226.77148 C 58.038489 225.64463 57.613565 224.52838 57.836553 223.40397 C 57.974238 220.58887 58.883522 217.89401 59.304688 215.12109 C 59.898873 214.44662 60.884892 214.54319 61.643128 214.17822 C 62.50568 213.91104 63.366639 213.6388 64.226562 213.36328 C 63.382161 217.30273 62.53776 221.24219 61.693359 225.18164 C 61.070312 225.46289 60.447266 225.74414 59.824219 226.02539 C 61.686849 226.33138 63.549479 226.63737 65.412109 226.94336 C 65.669893 226.69585 65.655028 226.22353 65.373047 226 C 65.889338 218.46641 68.049346 211.17476 70.412109 204.04297 C 70.839142 202.80786 71.270135 201.57414 71.705078 200.3418 C 72.027344 200.16602 72.349609 199.99023 72.671875 199.81445 C 72.356607 198.47504 71.495746 197.30151 70.392578 196.49609 C 69.166001 197.97411 69.030065 199.97335 68.276208 201.67971 C 67.456925 204.15171 66.637642 206.62371 65.818359 209.0957 C 64.395259 209.74808 62.963147 210.38063 61.525391 211 C 62.918207 205.83728 64.893319 200.86086 66.707031 195.83789 C 67.106006 195.74383 67.517376 195.82415 67.90625 195.92578 C 67.529985 192.78058 66.256048 189.8367 64.861328 187.02344 C 64.843099 187.21484 64.82487 187.40625 64.806641 187.59766 z M 133.17188 188.41992 C 130.85048 192.37377 128.50021 196.31477 126.39648 200.39062 C 126.33491 200.85164 126.35759 201.32256 126.45312 201.77734 C 128.23522 202.94292 129.16956 204.96804 129.83294 206.91774 C 132.07607 212.34455 134.38811 217.76274 136.01758 223.41406 C 135.99157 224.45173 136.00664 225.52513 135.61719 226.50586 C 136.5003 227.35039 137.8298 227.28011 138.94727 227.08594 C 139.60417 227.05339 140.26107 227.02083 140.91797 226.98828 C 140.15293 223.69872 138.78434 220.58663 138.00586 217.30078 C 138.10266 216.28446 138.77385 215.46543 139.3457 214.66602 C 140.23342 214.57659 140.87425 215.36199 141.23931 216.07238 C 141.28039 216.25075 141.58444 216.73143 141.55972 216.27716 C 141.45738 215.40861 141.01842 214.62787 140.82245 213.78168 C 139.91456 211.06772 138.84285 208.41302 137.79297 205.75195 C 137.16292 205.9786 137.11891 206.77518 137.27536 207.32372 C 137.2173 208.76282 137.15599 210.20178 137.0918 211.64062 C 135.01451 210.03899 133.91651 207.58382 132.68335 205.34454 C 131.75114 203.68412 130.81893 202.0237 129.88672 200.36328 C 130.32924 198.2345 131.06489 196.18368 131.77344 194.13281 C 132.99027 194.40091 133.68727 195.58989 134.0381 196.69322 C 134.27801 197.1503 134.51791 197.60737 134.75781 198.06445 C 134.23633 194.83594 133.71484 191.60742 133.19336 188.37891 L 133.17188 188.41992 z M 76.628906 202.43555 C 74.298008 203.47988 72.739587 205.68922 71.755622 207.97205 C 69.32856 213.61817 69.256255 220.32979 71.936777 225.90142 C 72.707951 227.31472 74.770923 227.89737 76.096057 226.91024 C 77.722 225.91169 78.541916 224.02468 78.820428 222.20216 C 79.853982 217.39587 80.047518 212.40253 79.347248 207.53552 C 79.000961 205.71823 78.372805 203.84026 77.02348 202.52068 C 76.904968 202.45614 76.764395 202.41563 76.628906 202.43555 z M 120.86914 204.19727 C 119.97144 204.84289 119.07626 205.49197 118.18359 206.14453 C 119.40988 207.3275 119.66986 209.14731 119.55172 210.77289 C 119.64255 212.29065 119.73339 213.80841 119.82422 215.32617 C 118.74154 213.59245 117.65885 211.85872 116.57617 210.125 C 116.83659 209.36654 117.09701 208.60807 117.35742 207.84961 C 115.86271 208.56129 114.56804 209.60867 113.25391 210.59961 C 114.85807 213.8463 116.75687 216.93621 118.72461 219.97266 C 118.64127 223.19255 117.19498 226.20438 115.37109 228.79492 C 116.19244 229.58825 117.54127 229.85247 118.55469 229.27734 C 118.99938 227.56706 119.41945 225.85031 119.88867 224.14648 C 120.62574 223.96437 121.1425 224.66598 121.54196 225.17009 C 122.19368 226.05036 122.49299 227.12777 123.08594 228.04297 C 124.1612 228.65201 125.42574 228.33317 126.59375 228.38086 C 127.09051 228.21835 126.91701 227.5943 126.77625 227.23266 C 126.03757 224.46921 124.16043 222.23635 122.55367 219.93795 C 121.90706 219.10904 121.3311 218.12325 121.39547 217.03437 C 121.07764 212.83451 121.14417 208.6171 121.3125 204.41211 C 121.21012 204.27651 121.0432 204.17826 120.86914 204.19727 z M 77.341797 204.75586 C 78.41736 207.9269 78.144865 211.34441 77.710616 214.60548 C 77.214976 218.14029 76.351338 221.68075 74.615234 224.82617 C 73.814424 225.69762 72.126938 224.89822 72.238281 223.73828 C 72.250277 218.8033 72.977528 213.83982 74.651552 209.18712 C 75.291005 207.59362 76.151375 206.08068 77.259766 204.76562 L 77.300781 204.75195 L 77.341797 204.75586 z M 83.882812 209.36719 C 83.311849 215.48763 82.740885 221.60807 82.169922 227.72852 C 81.872389 228.00021 81.572902 228.26973 81.271484 228.53711 C 84.112298 229.55526 87.120239 229.942 90.089844 230.38672 C 90.602423 229.7287 91.004217 228.99517 91.396484 228.26172 C 89.5371 228.21921 87.751062 229.03962 85.884766 228.82227 C 85.345436 228.33615 85.728621 227.57948 85.677212 226.96728 C 85.709287 225.88313 85.741362 224.79899 85.773438 223.71484 C 86.674654 223.34341 87.841239 223.61802 88.392578 224.44727 C 89.109219 224.35575 89.643826 223.70408 89.763672 223.01758 C 90.23533 222.71337 89.841619 221.95196 89.331173 222.02541 C 88.662314 221.78891 87.948512 221.68787 87.302734 221.38477 C 87.216146 219.19206 87.129557 216.99935 87.042969 214.80664 C 88.637747 215.04416 89.864502 216.22266 90.901276 217.36935 C 91.194952 217.71748 91.288058 218.38099 91.853516 218.36719 C 92.220028 218.39914 92.552001 218.05953 92.424521 217.69275 C 92.310235 216.23783 91.206456 215.1311 90.117787 214.28059 C 88.049228 212.29058 85.980669 210.30056 83.912109 208.31055 C 83.902344 208.66276 83.892578 209.01497 83.882812 209.36719 z M 111.59375 212.31445 C 110.12352 213.71751 108.68233 215.15049 107.22266 216.56445 C 107.08246 216.92726 107.08216 217.32184 107.07422 217.70508 C 107.41538 217.78204 107.66381 217.44233 107.9777 217.37201 C 108.12511 217.28192 108.5605 217.01961 108.49752 217.37967 C 108.3236 221.30303 108.16719 225.22827 108 229.15234 C 107.43034 229.19727 106.86068 229.24219 106.29102 229.28711 C 108.36872 229.64535 110.47325 229.80774 112.57422 229.95898 C 111.07327 227.17698 110.81761 223.93953 110.82831 220.83515 C 110.85297 218.95128 110.8819 217.06745 110.9082 215.18359 C 111.30208 214.39128 111.69596 213.59896 112.08984 212.80664 C 111.99761 212.59689 111.87543 212.28847 111.59375 212.31445 z M 102.05664 219.92773 C 102.23432 220.21644 102.59218 220.61783 102.2571 220.93058 C 101.88805 221.576 102.50354 222.21904 102.49199 222.88095 C 102.64386 223.88586 102.66387 224.90404 102.69922 225.91797 C 102.06939 224.44214 101.33932 222.98634 100.98283 221.41455 C 100.98919 221.02391 100.62424 220.75842 100.4718 220.41969 C 100.25559 220.0514 100.03597 219.66393 99.613281 219.50781 C 98.460089 218.92686 97.305154 218.34934 96.150391 217.77148 C 96.403971 218.78157 97.167971 219.70551 96.946157 220.79827 C 96.821099 223.62055 95.664804 226.24532 95.021484 228.96094 C 94.935873 229.40115 94.385419 229.46803 94.044828 229.63902 C 93.823888 229.73054 93.238197 229.79403 93.786118 229.81834 C 94.816397 229.944 95.846675 230.06965 96.876953 230.19531 C 97.027225 227.31182 97.680061 224.47339 98.609375 221.74609 C 99.004968 221.48813 99.350778 221.97551 99.448359 222.31523 C 100.50476 224.50693 101.04816 226.90165 102.00913 229.12986 C 102.05049 229.65095 102.6482 230.00697 103.11328 229.75391 C 103.48159 229.53824 103.28413 229.07432 103.37205 228.73673 C 103.61101 225.88572 103.56512 223.00965 103.9375 220.17188 C 104.06507 219.68861 104.62201 219.58554 104.94373 219.26499 C 105.15676 219.06843 105.47254 218.93082 105.63259 218.70959 C 105.65741 218.38517 105.68222 218.06075 105.70703 217.73633 C 104.49023 218.4668 103.27344 219.19727 102.05664 219.92773 z "
       id="text8"
       inkscape:transform-center-x="0.00010567841"
       inkscape:transform-center-y="-2.7949116"
       aria-label="PHOENIX FC" /><ellipse
       style="fill:#00ff00;fill-opacity:0;stroke-width:0.264583"
       id="path9"
       cx="82.885269"
       cy="144.17091"
       rx="6.3757896"
       ry="8.0673256" /><ellipse
       style="fill:#00ff00;fill-opacity:0;stroke-width:0.264583"
       id="path10"
       cx="74.29747"
       cy="145.99257"
       rx="6.1155534"
       ry="16.655125" /></g><g
     inkscape:groupmode="layer"
     id="layer3"
     inkscape:label="Camada 3"><text
       xml:space="preserve"
       id="text3"
       style="text-align:start;writing-mode:lr-tb;direction:ltr;white-space:pre;shape-inside:url(#rect3);shape-padding:2.78196;fill:#ffff00"
       transform="scale(0.26458333)" /></g><g
     inkscape:groupmode="layer"
     id="layer2"
     inkscape:label="Camada 2"><path
       sodipodi:type="star"
       style="fill:url(#linearGradient1373);fill-opacity:1;stroke-width:0.264583"
       id="path12"
       inkscape:flatsided="false"
       sodipodi:sides="5"
       sodipodi:cx="80.152786"
       sodipodi:cy="73.126404"
       sodipodi:r1="20.874132"
       sodipodi:r2="10.437066"
       sodipodi:arg1="0.9447498"
       sodipodi:arg2="1.5730683"
       inkscape:rounded="0"
       inkscape:randomized="0"
       d="m 92.383893,90.041764 -12.254819,-6.478321 -12.284132,6.422569 2.374303,-13.656938 -9.904231,-9.69822 13.722219,-1.96213 6.162979,-12.416398 6.106496,12.444274 13.713162,2.024464 -9.948197,9.653114 z"
       inkscape:transform-center-x="2.2875674"
       inkscape:transform-center-y="-6.0025444"
       transform="matrix(0.71115547,0.24117506,-0.22385044,0.6600702,103.29268,33.80481)" /><path
       sodipodi:type="star"
       style="fill:url(#linearGradient1371);fill-opacity:1;stroke-width:0.264583"
       id="path15"
       inkscape:flatsided="false"
       sodipodi:sides="5"
       sodipodi:cx="91.342949"
       sodipodi:cy="79.892555"
       sodipodi:r1="12.030126"
       sodipodi:r2="6.0150628"
       sodipodi:arg1="0.89267702"
       sodipodi:arg2="1.5209955"
       inkscape:rounded="0"
       inkscape:randomized="0"
       d="m 98.889802,89.261063 -7.247422,-3.360902 -6.877305,4.064906 0.956831,-7.931284 -5.99116,-5.28458 7.838776,-1.540901 3.174565,-7.330957 3.887799,6.978954 7.953144,0.7538 -5.43598,5.854132 z"
       inkscape:transform-center-x="0.26004479"
       inkscape:transform-center-y="-1.2506049"
       transform="matrix(1.4051938,0,0,1.28749,-28.979844,-17.514762)" /><path
       sodipodi:type="star"
       style="fill:url(#linearGradient1369);fill-opacity:1;stroke-width:0.264583"
       id="path1"
       inkscape:flatsided="false"
       sodipodi:sides="5"
       sodipodi:cx="91.342949"
       sodipodi:cy="79.892555"
       sodipodi:r1="12.030126"
       sodipodi:r2="6.0150628"
       sodipodi:arg1="0.89267702"
       sodipodi:arg2="1.5209955"
       inkscape:rounded="0"
       inkscape:randomized="0"
       d="m 98.889802,89.261063 -7.247422,-3.360902 -6.877305,4.064906 0.956831,-7.931284 -5.99116,-5.28458 7.838776,-1.540901 3.174565,-7.330957 3.887799,6.978954 7.953144,0.7538 -5.43598,5.854132 z"
       inkscape:transform-center-x="1.3796567"
       inkscape:transform-center-y="0.47707872"
       transform="matrix(1.3270447,-0.46208429,0.42337855,1.215887,-94.560022,43.907681)" /></g><g
     inkscape:groupmode="layer"
     id="layer5"
     inkscape:label="Camada 4" /></svg>
